<mxfile host="app.diagrams.net" modified="2022-03-26T11:48:26.937Z" agent="5.0 (X11)" etag="5uRBwbFLGVvupcYN6wiM" version="17.2.4" type="github" pages="6">
  <diagram id="y6zHq6lQ_J3xSZg7M48z" name="Introduction">
    <mxGraphModel dx="1398" dy="751" grid="1" gridSize="10" guides="1" tooltips="1" connect="1" arrows="1" fold="1" page="1" pageScale="1" pageWidth="850" pageHeight="1100" math="0" shadow="0">
      <root>
        <mxCell id="0" />
        <mxCell id="1" parent="0" />
        <mxCell id="Di7FYNCLXHuj9fUjnXUA-1" value="Open AdvanceJavaScript -&amp;gt; 4. NodeJS.drawio" style="text;html=1;strokeColor=none;fillColor=none;align=center;verticalAlign=middle;whiteSpace=wrap;rounded=0;fontFamily=Comfortaa;fontSource=https%3A%2F%2Ffonts.googleapis.com%2Fcss%3Ffamily%3DComfortaa;fontSize=35;" parent="1" vertex="1">
          <mxGeometry x="570" y="60" width="1200" height="90" as="geometry" />
        </mxCell>
      </root>
    </mxGraphModel>
  </diagram>
  <diagram id="uJ5LWGIrcrnfdSaOuP4g" name="REPL">
    <mxGraphModel dx="1398" dy="751" grid="1" gridSize="10" guides="1" tooltips="1" connect="1" arrows="1" fold="1" page="1" pageScale="1" pageWidth="1700" pageHeight="1100" math="0" shadow="0">
      <root>
        <mxCell id="YgIP1oCt232m2JHOr8eo-0" />
        <mxCell id="YgIP1oCt232m2JHOr8eo-1" parent="YgIP1oCt232m2JHOr8eo-0" />
        <mxCell id="bZ-jrlqmVhZ8fIApHqn_-0" value="REPL" style="text;html=1;strokeColor=none;fillColor=none;align=center;verticalAlign=middle;whiteSpace=wrap;rounded=0;fontFamily=Comfortaa;fontSource=https%3A%2F%2Ffonts.googleapis.com%2Fcss%3Ffamily%3DComfortaa;fontSize=50;fontStyle=1" vertex="1" parent="YgIP1oCt232m2JHOr8eo-1">
          <mxGeometry x="650" y="50" width="60" height="30" as="geometry" />
        </mxCell>
        <mxCell id="bZ-jrlqmVhZ8fIApHqn_-1" value="Read" style="text;html=1;strokeColor=none;fillColor=none;align=center;verticalAlign=middle;whiteSpace=wrap;rounded=0;fontFamily=Comfortaa;fontSource=https%3A%2F%2Ffonts.googleapis.com%2Fcss%3Ffamily%3DComfortaa;fontSize=35;" vertex="1" parent="YgIP1oCt232m2JHOr8eo-1">
          <mxGeometry x="640" y="330" width="60" height="30" as="geometry" />
        </mxCell>
        <mxCell id="bZ-jrlqmVhZ8fIApHqn_-2" value="&amp;gt; 3 + 5" style="rounded=0;whiteSpace=wrap;html=1;fontFamily=Comfortaa;fontSource=https%3A%2F%2Ffonts.googleapis.com%2Fcss%3Ffamily%3DComfortaa;fontSize=35;fillColor=none;" vertex="1" parent="YgIP1oCt232m2JHOr8eo-1">
          <mxGeometry x="810" y="315" width="330" height="60" as="geometry" />
        </mxCell>
        <mxCell id="bZ-jrlqmVhZ8fIApHqn_-3" value="Evaluate" style="text;html=1;strokeColor=none;fillColor=none;align=center;verticalAlign=middle;whiteSpace=wrap;rounded=0;fontFamily=Comfortaa;fontSource=https%3A%2F%2Ffonts.googleapis.com%2Fcss%3Ffamily%3DComfortaa;fontSize=35;" vertex="1" parent="YgIP1oCt232m2JHOr8eo-1">
          <mxGeometry x="640" y="430" width="60" height="30" as="geometry" />
        </mxCell>
        <mxCell id="bZ-jrlqmVhZ8fIApHqn_-4" value="It will take 3 + 5" style="rounded=0;whiteSpace=wrap;html=1;fontFamily=Comfortaa;fontSource=https%3A%2F%2Ffonts.googleapis.com%2Fcss%3Ffamily%3DComfortaa;fontSize=35;fillColor=none;" vertex="1" parent="YgIP1oCt232m2JHOr8eo-1">
          <mxGeometry x="810" y="415" width="330" height="60" as="geometry" />
        </mxCell>
        <mxCell id="bZ-jrlqmVhZ8fIApHqn_-6" value="Print" style="text;html=1;strokeColor=none;fillColor=none;align=center;verticalAlign=middle;whiteSpace=wrap;rounded=0;fontFamily=Comfortaa;fontSource=https%3A%2F%2Ffonts.googleapis.com%2Fcss%3Ffamily%3DComfortaa;fontSize=35;" vertex="1" parent="YgIP1oCt232m2JHOr8eo-1">
          <mxGeometry x="640" y="535" width="60" height="30" as="geometry" />
        </mxCell>
        <mxCell id="bZ-jrlqmVhZ8fIApHqn_-7" value="8" style="rounded=0;whiteSpace=wrap;html=1;fontFamily=Comfortaa;fontSource=https%3A%2F%2Ffonts.googleapis.com%2Fcss%3Ffamily%3DComfortaa;fontSize=35;fillColor=none;" vertex="1" parent="YgIP1oCt232m2JHOr8eo-1">
          <mxGeometry x="810" y="520" width="330" height="60" as="geometry" />
        </mxCell>
        <mxCell id="bZ-jrlqmVhZ8fIApHqn_-8" value="Loop" style="text;html=1;strokeColor=none;fillColor=none;align=center;verticalAlign=middle;whiteSpace=wrap;rounded=0;fontFamily=Comfortaa;fontSource=https%3A%2F%2Ffonts.googleapis.com%2Fcss%3Ffamily%3DComfortaa;fontSize=35;" vertex="1" parent="YgIP1oCt232m2JHOr8eo-1">
          <mxGeometry x="640" y="640" width="60" height="30" as="geometry" />
        </mxCell>
        <mxCell id="bZ-jrlqmVhZ8fIApHqn_-9" value="&amp;gt;_" style="rounded=0;whiteSpace=wrap;html=1;fontFamily=Comfortaa;fontSource=https%3A%2F%2Ffonts.googleapis.com%2Fcss%3Ffamily%3DComfortaa;fontSize=35;fillColor=none;" vertex="1" parent="YgIP1oCt232m2JHOr8eo-1">
          <mxGeometry x="810" y="620" width="330" height="60" as="geometry" />
        </mxCell>
        <mxCell id="bZ-jrlqmVhZ8fIApHqn_-11" value="Run JavaScript in console mode (just like DevTool on the Browser" style="text;html=1;strokeColor=none;fillColor=none;align=center;verticalAlign=middle;whiteSpace=wrap;rounded=0;fontFamily=Comfortaa;fontSource=https%3A%2F%2Ffonts.googleapis.com%2Fcss%3Ffamily%3DComfortaa;fontSize=35;fontStyle=2" vertex="1" parent="YgIP1oCt232m2JHOr8eo-1">
          <mxGeometry x="455" y="140" width="430" height="30" as="geometry" />
        </mxCell>
        <mxCell id="kN2Vg4NoAx0qoAxdBXob-0" value="The loop will continue unless you press Ctrl+C to quit the REPL mode" style="rounded=0;whiteSpace=wrap;html=1;fontFamily=Comfortaa;fontSource=https%3A%2F%2Ffonts.googleapis.com%2Fcss%3Ffamily%3DComfortaa;fontSize=25;fillColor=#dae8fc;strokeColor=#6c8ebf;" vertex="1" parent="YgIP1oCt232m2JHOr8eo-1">
          <mxGeometry x="445" y="720" width="505" height="110" as="geometry" />
        </mxCell>
        <mxCell id="kN2Vg4NoAx0qoAxdBXob-1" value="" style="endArrow=classic;html=1;rounded=0;fontFamily=Comfortaa;fontSource=https%3A%2F%2Ffonts.googleapis.com%2Fcss%3Ffamily%3DComfortaa;fontSize=35;edgeStyle=orthogonalEdgeStyle;curved=1;" edge="1" parent="YgIP1oCt232m2JHOr8eo-1" target="bZ-jrlqmVhZ8fIApHqn_-1">
          <mxGeometry width="50" height="50" relative="1" as="geometry">
            <mxPoint x="620" y="660" as="sourcePoint" />
            <mxPoint x="480" y="630" as="targetPoint" />
            <Array as="points">
              <mxPoint x="510" y="660" />
              <mxPoint x="510" y="340" />
            </Array>
          </mxGeometry>
        </mxCell>
        <mxCell id="kN2Vg4NoAx0qoAxdBXob-2" value="You will lose everything when you quit REPL mode" style="rounded=0;whiteSpace=wrap;html=1;fontFamily=Comfortaa;fontSource=https%3A%2F%2Ffonts.googleapis.com%2Fcss%3Ffamily%3DComfortaa;fontSize=25;fillColor=#ffe6cc;strokeColor=#d79b00;" vertex="1" parent="YgIP1oCt232m2JHOr8eo-1">
          <mxGeometry x="490" y="890" width="410" height="110" as="geometry" />
        </mxCell>
        <mxCell id="kN2Vg4NoAx0qoAxdBXob-6" style="edgeStyle=orthogonalEdgeStyle;curved=1;rounded=0;orthogonalLoop=1;jettySize=auto;html=1;fontFamily=Comfortaa;fontSource=https%3A%2F%2Ffonts.googleapis.com%2Fcss%3Ffamily%3DComfortaa;fontSize=20;" edge="1" parent="YgIP1oCt232m2JHOr8eo-1" source="kN2Vg4NoAx0qoAxdBXob-3" target="kN2Vg4NoAx0qoAxdBXob-5">
          <mxGeometry relative="1" as="geometry" />
        </mxCell>
        <mxCell id="kN2Vg4NoAx0qoAxdBXob-3" value="We should just use REPL mode to test small thing not to write program" style="text;html=1;strokeColor=none;fillColor=none;align=center;verticalAlign=middle;whiteSpace=wrap;rounded=0;fontFamily=Comfortaa;fontSource=https%3A%2F%2Ffonts.googleapis.com%2Fcss%3Ffamily%3DComfortaa;fontSize=20;fontStyle=2" vertex="1" parent="YgIP1oCt232m2JHOr8eo-1">
          <mxGeometry x="440" y="1030" width="510" height="30" as="geometry" />
        </mxCell>
        <mxCell id="kN2Vg4NoAx0qoAxdBXob-4" value="To open REPL mode, open terminal and type &amp;gt;node" style="rounded=0;whiteSpace=wrap;html=1;fontFamily=Comfortaa;fontSource=https%3A%2F%2Ffonts.googleapis.com%2Fcss%3Ffamily%3DComfortaa;fontSize=20;fillColor=none;" vertex="1" parent="YgIP1oCt232m2JHOr8eo-1">
          <mxGeometry x="60" y="430" width="300" height="60" as="geometry" />
        </mxCell>
        <mxCell id="kN2Vg4NoAx0qoAxdBXob-5" value="node file.js" style="rounded=0;whiteSpace=wrap;html=1;fontFamily=Comfortaa;fontSource=https%3A%2F%2Ffonts.googleapis.com%2Fcss%3Ffamily%3DComfortaa;fontSize=20;fillColor=none;" vertex="1" parent="YgIP1oCt232m2JHOr8eo-1">
          <mxGeometry x="1150" y="1015" width="120" height="60" as="geometry" />
        </mxCell>
        <mxCell id="kN2Vg4NoAx0qoAxdBXob-7" value="We should write node in JavaScript file and provide it to node like this" style="text;html=1;strokeColor=none;fillColor=none;align=center;verticalAlign=middle;whiteSpace=wrap;rounded=0;fontFamily=Comfortaa;fontSource=https%3A%2F%2Ffonts.googleapis.com%2Fcss%3Ffamily%3DComfortaa;fontSize=20;fontStyle=2" vertex="1" parent="YgIP1oCt232m2JHOr8eo-1">
          <mxGeometry x="1000" y="1050" width="390" height="120" as="geometry" />
        </mxCell>
      </root>
    </mxGraphModel>
  </diagram>
  <diagram id="ns5i2DY6tKjVQl1pWXUK" name="API">
    <mxGraphModel dx="1165" dy="626" grid="1" gridSize="10" guides="1" tooltips="1" connect="1" arrows="1" fold="1" page="1" pageScale="1" pageWidth="850" pageHeight="1100" math="0" shadow="0">
      <root>
        <mxCell id="0" />
        <mxCell id="1" parent="0" />
        <mxCell id="G2ADQmpWI5vjTmXukRIW-2" value="Browser (window)" style="swimlane;fontFamily=Comfortaa;fontSource=https%3A%2F%2Ffonts.googleapis.com%2Fcss%3Ffamily%3DComfortaa;fontSize=20;fillColor=none;" vertex="1" parent="1">
          <mxGeometry x="200" y="490" width="200" height="200" as="geometry" />
        </mxCell>
        <mxCell id="G2ADQmpWI5vjTmXukRIW-5" value="document" style="whiteSpace=wrap;html=1;fontFamily=Comfortaa;fontSource=https%3A%2F%2Ffonts.googleapis.com%2Fcss%3Ffamily%3DComfortaa;fontSize=20;fillColor=none;" vertex="1" parent="G2ADQmpWI5vjTmXukRIW-2">
          <mxGeometry x="40" y="30" width="120" height="60" as="geometry" />
        </mxCell>
        <mxCell id="G2ADQmpWI5vjTmXukRIW-6" value="alert" style="whiteSpace=wrap;html=1;fontFamily=Comfortaa;fontSource=https%3A%2F%2Ffonts.googleapis.com%2Fcss%3Ffamily%3DComfortaa;fontSize=20;fillColor=none;" vertex="1" parent="G2ADQmpWI5vjTmXukRIW-2">
          <mxGeometry x="40" y="100" width="120" height="60" as="geometry" />
        </mxCell>
        <mxCell id="G2ADQmpWI5vjTmXukRIW-7" value="Node (global)" style="swimlane;fontFamily=Comfortaa;fontSource=https%3A%2F%2Ffonts.googleapis.com%2Fcss%3Ffamily%3DComfortaa;fontSize=20;fillColor=none;" vertex="1" parent="1">
          <mxGeometry x="510" y="490" width="200" height="200" as="geometry" />
        </mxCell>
        <mxCell id="G2ADQmpWI5vjTmXukRIW-8" value="process" style="whiteSpace=wrap;html=1;fontFamily=Comfortaa;fontSource=https%3A%2F%2Ffonts.googleapis.com%2Fcss%3Ffamily%3DComfortaa;fontSize=20;fillColor=none;" vertex="1" parent="G2ADQmpWI5vjTmXukRIW-7">
          <mxGeometry x="40" y="30" width="120" height="60" as="geometry" />
        </mxCell>
        <mxCell id="G2ADQmpWI5vjTmXukRIW-9" value="alert" style="whiteSpace=wrap;html=1;fontFamily=Comfortaa;fontSource=https%3A%2F%2Ffonts.googleapis.com%2Fcss%3Ffamily%3DComfortaa;fontSize=20;fillColor=none;" vertex="1" parent="G2ADQmpWI5vjTmXukRIW-7">
          <mxGeometry x="40" y="100" width="120" height="60" as="geometry" />
        </mxCell>
      </root>
    </mxGraphModel>
  </diagram>
  <diagram id="lkT-3ypMOp7CsbQ6YI1r" name="NodeJS vs JavaScript">
    <mxGraphModel dx="2796" dy="1502" grid="1" gridSize="10" guides="1" tooltips="1" connect="1" arrows="1" fold="1" page="1" pageScale="1" pageWidth="850" pageHeight="1100" math="0" shadow="0">
      <root>
        <mxCell id="0" />
        <mxCell id="1" parent="0" />
        <mxCell id="BTwWnFB5MWLbAS2u9eev-1" value="Open AdvanceJavaScript -&amp;gt; 4. NodeJS.drawio" style="text;html=1;strokeColor=none;fillColor=none;align=center;verticalAlign=middle;whiteSpace=wrap;rounded=0;fontFamily=Comfortaa;fontSource=https%3A%2F%2Ffonts.googleapis.com%2Fcss%3Ffamily%3DComfortaa;fontSize=35;" vertex="1" parent="1">
          <mxGeometry x="540" y="410" width="1200" height="90" as="geometry" />
        </mxCell>
      </root>
    </mxGraphModel>
  </diagram>
  <diagram id="zBrOSxbGMuuOjSWAF7hM" name="FrontEnd vs. BackEnd">
    <mxGraphModel dx="2248" dy="751" grid="1" gridSize="10" guides="1" tooltips="1" connect="1" arrows="1" fold="1" page="1" pageScale="1" pageWidth="850" pageHeight="1100" math="0" shadow="0">
      <root>
        <mxCell id="0" />
        <mxCell id="1" parent="0" />
        <mxCell id="xNjWpn6w8D7Uc4wf2ohH-1" value="" style="strokeWidth=1;shadow=0;dashed=0;align=center;html=1;shape=mxgraph.mockup.containers.browserWindow;rSize=0;strokeColor=#666666;strokeColor2=#008cff;strokeColor3=#c4c4c4;mainText=,;recursiveResize=0;fontFamily=Comfortaa;fontSource=https%3A%2F%2Ffonts.googleapis.com%2Fcss%3Ffamily%3DComfortaa;fontSize=20;fillColor=none;" parent="1" vertex="1">
          <mxGeometry x="-180" y="180" width="360" height="200" as="geometry" />
        </mxCell>
        <mxCell id="xNjWpn6w8D7Uc4wf2ohH-2" value="Page 1" style="strokeWidth=1;shadow=0;dashed=0;align=center;html=1;shape=mxgraph.mockup.containers.anchor;fontSize=17;fontColor=#666666;align=left;fontFamily=Comfortaa;fontSource=https%3A%2F%2Ffonts.googleapis.com%2Fcss%3Ffamily%3DComfortaa;fillColor=none;" parent="xNjWpn6w8D7Uc4wf2ohH-1" vertex="1">
          <mxGeometry x="60" y="12" width="110" height="26" as="geometry" />
        </mxCell>
        <mxCell id="xNjWpn6w8D7Uc4wf2ohH-3" value="https://www.draw.io" style="strokeWidth=1;shadow=0;dashed=0;align=center;html=1;shape=mxgraph.mockup.containers.anchor;rSize=0;fontSize=17;fontColor=#666666;align=left;fontFamily=Comfortaa;fontSource=https%3A%2F%2Ffonts.googleapis.com%2Fcss%3Ffamily%3DComfortaa;fillColor=none;" parent="xNjWpn6w8D7Uc4wf2ohH-1" vertex="1">
          <mxGeometry x="130" y="60" width="250" height="26" as="geometry" />
        </mxCell>
        <mxCell id="xNjWpn6w8D7Uc4wf2ohH-4" value="FrontEnd/Client" style="text;html=1;strokeColor=none;fillColor=none;align=center;verticalAlign=middle;whiteSpace=wrap;rounded=0;fontFamily=Comfortaa;fontSource=https%3A%2F%2Ffonts.googleapis.com%2Fcss%3Ffamily%3DComfortaa;fontSize=20;" parent="1" vertex="1">
          <mxGeometry x="-30" y="390" width="60" height="30" as="geometry" />
        </mxCell>
        <mxCell id="xNjWpn6w8D7Uc4wf2ohH-5" value="" style="points=[];aspect=fixed;html=1;align=center;shadow=0;dashed=0;image;image=img/lib/allied_telesis/storage/Datacenter_Server_Half_Rack_ToR.svg;fontFamily=Comfortaa;fontSource=https%3A%2F%2Ffonts.googleapis.com%2Fcss%3Ffamily%3DComfortaa;fontSize=20;fillColor=none;" parent="1" vertex="1">
          <mxGeometry x="650" y="160" width="157.47" height="204.6" as="geometry" />
        </mxCell>
        <mxCell id="xNjWpn6w8D7Uc4wf2ohH-6" value="BackEnd/Server" style="text;html=1;strokeColor=none;fillColor=none;align=center;verticalAlign=middle;whiteSpace=wrap;rounded=0;fontFamily=Comfortaa;fontSource=https%3A%2F%2Ffonts.googleapis.com%2Fcss%3Ffamily%3DComfortaa;fontSize=20;" parent="1" vertex="1">
          <mxGeometry x="698.74" y="380" width="60" height="30" as="geometry" />
        </mxCell>
        <mxCell id="xNjWpn6w8D7Uc4wf2ohH-7" value="" style="endArrow=classic;html=1;rounded=0;fontFamily=Comfortaa;fontSource=https%3A%2F%2Ffonts.googleapis.com%2Fcss%3Ffamily%3DComfortaa;fontSize=20;curved=1;exitX=0.997;exitY=0.145;exitDx=0;exitDy=0;exitPerimeter=0;entryX=-0.019;entryY=0.235;entryDx=0;entryDy=0;entryPerimeter=0;" parent="1" source="xNjWpn6w8D7Uc4wf2ohH-1" target="xNjWpn6w8D7Uc4wf2ohH-5" edge="1">
          <mxGeometry width="50" height="50" relative="1" as="geometry">
            <mxPoint x="380" y="260" as="sourcePoint" />
            <mxPoint x="430" y="210" as="targetPoint" />
          </mxGeometry>
        </mxCell>
        <mxCell id="xNjWpn6w8D7Uc4wf2ohH-8" value="Request" style="edgeLabel;html=1;align=center;verticalAlign=middle;resizable=0;points=[];fontSize=20;fontFamily=Comfortaa;" parent="xNjWpn6w8D7Uc4wf2ohH-7" vertex="1" connectable="0">
          <mxGeometry x="0.0351" y="2" relative="1" as="geometry">
            <mxPoint as="offset" />
          </mxGeometry>
        </mxCell>
        <mxCell id="xNjWpn6w8D7Uc4wf2ohH-9" value="Can i get some data?" style="rounded=0;whiteSpace=wrap;html=1;fontFamily=Comfortaa;fontSource=https%3A%2F%2Ffonts.googleapis.com%2Fcss%3Ffamily%3DComfortaa;fontSize=20;fillColor=none;" parent="1" vertex="1">
          <mxGeometry x="280" y="110" width="270" height="50" as="geometry" />
        </mxCell>
        <mxCell id="xNjWpn6w8D7Uc4wf2ohH-10" value="" style="endArrow=classic;html=1;rounded=0;fontFamily=Comfortaa;fontSource=https%3A%2F%2Ffonts.googleapis.com%2Fcss%3Ffamily%3DComfortaa;fontSize=20;curved=1;entryX=1.006;entryY=0.59;entryDx=0;entryDy=0;entryPerimeter=0;exitX=0.006;exitY=0.67;exitDx=0;exitDy=0;exitPerimeter=0;" parent="1" source="xNjWpn6w8D7Uc4wf2ohH-5" target="xNjWpn6w8D7Uc4wf2ohH-1" edge="1">
          <mxGeometry width="50" height="50" relative="1" as="geometry">
            <mxPoint x="330" y="430" as="sourcePoint" />
            <mxPoint x="380" y="380" as="targetPoint" />
          </mxGeometry>
        </mxCell>
        <mxCell id="xNjWpn6w8D7Uc4wf2ohH-12" value="Response" style="edgeLabel;html=1;align=center;verticalAlign=middle;resizable=0;points=[];fontSize=20;fontFamily=Comfortaa;" parent="xNjWpn6w8D7Uc4wf2ohH-10" vertex="1" connectable="0">
          <mxGeometry x="0.0621" y="1" relative="1" as="geometry">
            <mxPoint x="13" as="offset" />
          </mxGeometry>
        </mxCell>
        <mxCell id="xNjWpn6w8D7Uc4wf2ohH-11" value="Oke here it is" style="rounded=0;whiteSpace=wrap;html=1;fontFamily=Comfortaa;fontSource=https%3A%2F%2Ffonts.googleapis.com%2Fcss%3Ffamily%3DComfortaa;fontSize=20;fillColor=none;" parent="1" vertex="1">
          <mxGeometry x="270" y="340" width="270" height="50" as="geometry" />
        </mxCell>
        <mxCell id="xNjWpn6w8D7Uc4wf2ohH-13" value="" style="shape=image;verticalLabelPosition=bottom;labelBackgroundColor=default;verticalAlign=top;aspect=fixed;imageAspect=0;image=https://cdn.iconscout.com/icon/free/png-256/html-file-2330569-1950410.png;" parent="1" vertex="1">
          <mxGeometry x="574" y="520" width="76" height="76" as="geometry" />
        </mxCell>
        <mxCell id="xNjWpn6w8D7Uc4wf2ohH-14" value="" style="shape=image;verticalLabelPosition=bottom;labelBackgroundColor=default;verticalAlign=top;aspect=fixed;imageAspect=0;image=https://www.shareicon.net/data/512x512/2016/05/06/760855_css_512x512.png;" parent="1" vertex="1">
          <mxGeometry x="650" y="525" width="66" height="66" as="geometry" />
        </mxCell>
        <mxCell id="xNjWpn6w8D7Uc4wf2ohH-15" value="" style="shape=image;verticalLabelPosition=bottom;labelBackgroundColor=default;verticalAlign=top;aspect=fixed;imageAspect=0;image=https://cdn-icons-png.flaticon.com/512/136/136530.png;" parent="1" vertex="1">
          <mxGeometry x="716" y="520" width="71" height="71" as="geometry" />
        </mxCell>
        <mxCell id="xNjWpn6w8D7Uc4wf2ohH-17" value="Server Side Rendering" style="text;html=1;strokeColor=none;fillColor=none;align=center;verticalAlign=middle;whiteSpace=wrap;rounded=0;fontFamily=Comfortaa;fontSource=https%3A%2F%2Ffonts.googleapis.com%2Fcss%3Ffamily%3DComfortaa;fontSize=20;" parent="1" vertex="1">
          <mxGeometry x="534.5" y="610" width="297" height="30" as="geometry" />
        </mxCell>
        <mxCell id="xNjWpn6w8D7Uc4wf2ohH-18" value="" style="shape=image;verticalLabelPosition=bottom;labelBackgroundColor=default;verticalAlign=top;aspect=fixed;imageAspect=0;image=https://cdn-icons-png.flaticon.com/512/136/136525.png;" parent="1" vertex="1">
          <mxGeometry x="992.5" y="525" width="72" height="72" as="geometry" />
        </mxCell>
        <mxCell id="xNjWpn6w8D7Uc4wf2ohH-19" value="REST" style="text;html=1;strokeColor=none;fillColor=none;align=center;verticalAlign=middle;whiteSpace=wrap;rounded=0;fontFamily=Comfortaa;fontSource=https%3A%2F%2Ffonts.googleapis.com%2Fcss%3Ffamily%3DComfortaa;fontSize=20;" parent="1" vertex="1">
          <mxGeometry x="880" y="610" width="297" height="30" as="geometry" />
        </mxCell>
        <mxCell id="xNjWpn6w8D7Uc4wf2ohH-20" value="" style="shape=image;verticalLabelPosition=bottom;labelBackgroundColor=default;verticalAlign=top;aspect=fixed;imageAspect=0;image=https://cdn.iconscout.com/icon/free/png-256/xml-file-2330558-1950399.png;" parent="1" vertex="1">
          <mxGeometry x="1110" y="525" width="77" height="77" as="geometry" />
        </mxCell>
        <mxCell id="xNjWpn6w8D7Uc4wf2ohH-21" value="" style="shape=image;verticalLabelPosition=bottom;labelBackgroundColor=default;verticalAlign=top;aspect=fixed;imageAspect=0;image=https://cdn.iconscout.com/icon/free/png-256/txt-file-20-504249.png;" parent="1" vertex="1">
          <mxGeometry x="1177" y="528" width="71" height="71" as="geometry" />
        </mxCell>
        <mxCell id="xNjWpn6w8D7Uc4wf2ohH-22" value="HTTP/HTTPs" style="text;html=1;strokeColor=none;fillColor=none;align=center;verticalAlign=middle;whiteSpace=wrap;rounded=0;fontFamily=Comfortaa;fontSource=https%3A%2F%2Ffonts.googleapis.com%2Fcss%3Ffamily%3DComfortaa;fontSize=30;fontStyle=1" parent="1" vertex="1">
          <mxGeometry x="390" y="238" width="60" height="30" as="geometry" />
        </mxCell>
      </root>
    </mxGraphModel>
  </diagram>
  <diagram id="QeAWk9Vjs4Lkv2FzDNro" name="Page-6">
    <mxGraphModel dx="2248" dy="751" grid="1" gridSize="10" guides="1" tooltips="1" connect="1" arrows="1" fold="1" page="1" pageScale="1" pageWidth="850" pageHeight="1100" math="0" shadow="0">
      <root>
        <mxCell id="0" />
        <mxCell id="1" parent="0" />
        <mxCell id="BnNZ8PA1uRKtzQDke3h5-1" value="" style="shape=image;verticalLabelPosition=bottom;labelBackgroundColor=default;verticalAlign=top;aspect=fixed;imageAspect=0;image=https://i.stack.imgur.com/QRePV.jpg;" vertex="1" parent="1">
          <mxGeometry x="-50" y="200" width="875.12" height="345" as="geometry" />
        </mxCell>
        <mxCell id="BnNZ8PA1uRKtzQDke3h5-2" value="When you run NodeJS code, it actually run C++ behind the scene thanks for NodeJS binding to Libuv library" style="rounded=0;whiteSpace=wrap;html=1;fontFamily=Comfortaa;fontSource=https%3A%2F%2Ffonts.googleapis.com%2Fcss%3Ffamily%3DComfortaa;fontSize=25;" vertex="1" parent="1">
          <mxGeometry x="112.56" y="580" width="550" height="90" as="geometry" />
        </mxCell>
      </root>
    </mxGraphModel>
  </diagram>
</mxfile>
